<svg xmlns="http://www.w3.org/2000/svg" viewBox="0 0 594.5 594.5"><defs><style>.cls-1{stroke:#000;stroke-miterlimit:10;stroke-width:1.01px;}.cls-2{fill:none;}</style></defs><title>logo-seguros</title><g id="Layer_2" data-name="Layer 2"><path class="cls-1" d="M385.5,452.5c-134.76,0-244-109.24-244-244A243.71,243.71,0,0,1,245.59,8.59C107.8,34.34,3.5,155.23,3.5,300.5c0,164,133,297,297,297,153.3,0,279.45-116.15,295.31-265.24A243.87,243.87,0,0,1,385.5,452.5Z" transform="translate(-3 -3.5)"/></g><g id="Layer_3" data-name="Layer 3"><path class="cls-2" d="M311.9,3.74,144.15,172.45a244.29,244.29,0,0,0-2.62,32.79l198-199.18Q325.91,4.26,311.9,3.74Z" transform="translate(-3 -3.5)"/><path class="cls-2" d="M368.23,11.27l-225,226.29a242.6,242.6,0,0,0,4.52,26.05L392,17.9Q380.34,14.11,368.23,11.27Z" transform="translate(-3 -3.5)"/><path class="cls-2" d="M245.59,8.59a244.75,244.75,0,0,0-90.17,118.49l122-122.67A299.54,299.54,0,0,0,245.59,8.59Z" transform="translate(-3 -3.5)"/><path class="cls-2" d="M416.73,27.11,155.43,289.92a243.64,243.64,0,0,0,10,24.09L439.74,38.12Q428.51,32.14,416.73,27.11Z" transform="translate(-3 -3.5)"/><path class="cls-2" d="M579.44,198.27l-247,248.43a246.46,246.46,0,0,0,24.33,4.11l229.64-231Q583.32,208.89,579.44,198.27Z" transform="translate(-3 -3.5)"/><path class="cls-2" d="M592.78,247.48,389,452.47a245.38,245.38,0,0,0,30.26-2.29L596.15,272.23Q595,259.71,592.78,247.48Z" transform="translate(-3 -3.5)"/><path class="cls-2" d="M556.61,150.05,279.78,428.47A242.42,242.42,0,0,0,306,439.24L569.41,174.31Q563.56,161.86,556.61,150.05Z" transform="translate(-3 -3.5)"/><path class="cls-2" d="M531,113.19,240.85,405q8.25,6.09,17,11.48L543.29,129.41Q537.41,121.09,531,113.19Z" transform="translate(-3 -3.5)"/><path class="cls-2" d="M461.12,50.65,177.42,336q6.14,10,13.18,19.33L480.2,64Q470.94,57,461.12,50.65Z" transform="translate(-3 -3.5)"/><path class="cls-2" d="M498.78,79.4,206.05,373.81q7.69,8.34,16.11,15.95L515.07,95.16Q507.22,87,498.78,79.4Z" transform="translate(-3 -3.5)"/><path class="cls-2" d="M463.4,439.79A244.74,244.74,0,0,0,595.81,332.26q1.43-13.47,1.63-27.28Z" transform="translate(-3 -3.5)"/><path d="M597.5,300.5c0-9.54-.47-19-1.35-28.27l-176.93,178a241.89,241.89,0,0,0,44.18-10.39L597.44,305C597.46,303.48,597.5,302,597.5,300.5Z" transform="translate(-3 -3.5)"/><path d="M586.41,219.85l-229.64,231a247.79,247.79,0,0,0,28.73,1.69c1.16,0,2.31,0,3.46,0l203.82-205Q590.25,233.43,586.41,219.85Z" transform="translate(-3 -3.5)"/><path d="M569.41,174.31,306,439.24a241.59,241.59,0,0,0,26.44,7.46l247-248.43Q574.94,186,569.41,174.31Z" transform="translate(-3 -3.5)"/><path d="M543.29,129.41,257.86,416.48a245.65,245.65,0,0,0,21.92,12L556.61,150.05Q550.36,139.45,543.29,129.41Z" transform="translate(-3 -3.5)"/><path d="M515.07,95.16,222.16,389.76q9,8.07,18.69,15.24L531,113.19Q523.39,103.86,515.07,95.16Z" transform="translate(-3 -3.5)"/><path d="M480.2,64,190.6,355.31q7.28,9.63,15.45,18.5L498.78,79.4Q489.81,71.35,480.2,64Z" transform="translate(-3 -3.5)"/><path d="M439.74,38.12,165.43,314a245.14,245.14,0,0,0,12,22L461.12,50.65Q450.73,43.95,439.74,38.12Z" transform="translate(-3 -3.5)"/><path d="M392,17.9,147.75,263.61a242.45,242.45,0,0,0,7.68,26.31L416.73,27.11Q404.66,22,392,17.9Z" transform="translate(-3 -3.5)"/><path d="M339.56,6.06l-198,199.18c0,1.08,0,2.17,0,3.26a246.62,246.62,0,0,0,1.73,29.06l225-226.29A291.3,291.3,0,0,0,339.56,6.06Z" transform="translate(-3 -3.5)"/><path d="M300.5,3.5c-7.78,0-15.49.32-23.12.91l-122,122.67a242.05,242.05,0,0,0-11.27,45.37L311.9,3.74C308.11,3.6,304.32,3.5,300.5,3.5Z" transform="translate(-3 -3.5)"/></g></svg>